<svg xmlns="http://www.w3.org/2000/svg" version="1.1" xmlns:xlink="http://www.w3.org/1999/xlink" xmlns:svgjs="http://svgjs.com/svgjs" width="1440" height="560" preserveAspectRatio="none" viewBox="0 0 1440 560"><g mask="url(&quot;#SvgjsMask1092&quot;)" fill="none"><rect width="1440" height="560" x="0" y="0" fill="rgba(46, 193, 172, 0.49)"></rect><path d="M 0,236 C 57.6,205.6 172.8,88.4 288,84 C 403.2,79.6 460.8,204.8 576,214 C 691.2,223.2 748.8,123 864,130 C 979.2,137 1036.8,271.8 1152,249 C 1267.2,226.2 1382.4,62.6 1440,16L1440 560L0 560z" fill="rgba(62, 151, 139, 0.7)"></path><path d="M 0,551 C 144,507.8 432,352.2 720,335 C 1008,317.8 1296,439 1440,465L1440 560L0 560z" fill="rgba(210, 230, 3, 1)"></path></g><defs><mask id="SvgjsMask1092"><rect width="1440" height="560" fill="#ffffff"></rect></mask></defs></svg>