<svg xmlns="http://www.w3.org/2000/svg" version="1.1" xmlns:xlink="http://www.w3.org/1999/xlink" xmlns:svgjs="http://svgjs.com/svgjs" width="1440" height="560" preserveAspectRatio="none" viewBox="0 0 1440 560"><g mask="url(&quot;#SvgjsMask1063&quot;)" fill="none"><rect width="1440" height="560" x="0" y="0" fill="rgba(239, 244, 142, 0.76)"></rect><path d="M 0,228 C 57.6,196.2 172.8,79 288,69 C 403.2,59 460.8,174.4 576,178 C 691.2,181.6 748.8,84.8 864,87 C 979.2,89.2 1036.8,202.8 1152,189 C 1267.2,175.2 1382.4,52.2 1440,18L1440 560L0 560z" fill="rgba(46, 193, 172, 0.57)"></path><path d="M 0,425 C 72,416 216,368.6 360,380 C 504,391.4 576,486.2 720,482 C 864,477.8 936,354.8 1080,359 C 1224,363.2 1368,474.2 1440,503L1440 560L0 560z" fill="rgba(42, 185, 164, 0.39)"></path></g><defs><mask id="SvgjsMask1063"><rect width="1440" height="560" fill="#ffffff"></rect></mask></defs></svg>