<svg width="1273" height="785" viewBox="0 0 1273 785" fill="none" xmlns="http://www.w3.org/2000/svg">
<g clip-path="url(#clip0_748_127)">
<rect width="1273" height="785" fill="white"/>
<path fill-rule="evenodd" clip-rule="evenodd" d="M1249.47 467.771C1191.16 595.416 1043.14 658.647 915.52 600.353C787.001 541.646 735.038 388.157 793.759 259.607C847.102 142.829 994.054 119.513 1110.8 172.844C1226.56 225.719 1302.35 351.99 1249.47 467.771Z" fill="url(#paint0_linear_748_127)"/>
<path d="M1245.39 380C1245.39 477.871 1149.74 557.394 1031.5 557.394C913.259 557.394 817.606 477.871 817.606 380C817.606 282.129 913.259 202.606 1031.5 202.606C1149.74 202.606 1245.39 282.129 1245.39 380Z" stroke="url(#paint1_linear_748_127)" stroke-width="1.21134"/>
<path d="M1227.54 344.019C1227.54 417.707 1155.53 477.581 1066.5 477.581C977.475 477.581 905.456 417.707 905.456 344.019C905.456 270.33 977.475 210.456 1066.5 210.456C1155.53 210.456 1227.54 270.33 1227.54 344.019Z" stroke="url(#paint2_linear_748_127)" stroke-width="0.912035"/>
<path fill-rule="evenodd" clip-rule="evenodd" d="M24.5677 800.502C-30.3898 758.677 -44.7013 680.765 -2.88602 625.82C39.2257 570.486 118.541 562.176 173.888 604.298C224.167 642.562 219.433 715.634 181.178 765.901C143.249 815.739 74.4171 838.44 24.5677 800.502Z" fill="url(#paint3_radial_748_127)"/>
<path d="M233.5 614.5C233.5 667.517 190.298 710.5 137 710.5C83.7021 710.5 40.5 667.517 40.5 614.5C40.5 561.483 83.7021 518.5 137 518.5C190.298 518.5 233.5 561.483 233.5 614.5Z" stroke="url(#paint4_linear_748_127)"/>
<circle cx="432" cy="591" r="2" fill="#3E978B" fill-opacity="0.37"/>
<circle cx="576.169" cy="591" r="2" fill="#3E978B" fill-opacity="0.37"/>
<circle cx="468.043" cy="591" r="2" fill="#3E978B" fill-opacity="0.37"/>
<circle cx="612.212" cy="591" r="2" fill="#3E978B" fill-opacity="0.37"/>
<circle cx="504.085" cy="591" r="2" fill="#3E978B" fill-opacity="0.37"/>
<circle cx="648.255" cy="591" r="2" fill="#3E978B" fill-opacity="0.37"/>
<circle cx="540.127" cy="591" r="2" fill="#3E978B" fill-opacity="0.37"/>
<circle cx="684.297" cy="591" r="2" fill="#3E978B" fill-opacity="0.37"/>
<circle cx="432" cy="623.895" r="2" fill="#3E978B" fill-opacity="0.37"/>
<circle cx="576.169" cy="623.895" r="2" fill="#3E978B" fill-opacity="0.37"/>
<circle cx="468.043" cy="623.895" r="2" fill="#3E978B" fill-opacity="0.37"/>
<circle cx="612.212" cy="623.895" r="2" fill="#3E978B" fill-opacity="0.37"/>
<circle cx="504.085" cy="623.895" r="2" fill="#3E978B" fill-opacity="0.37"/>
<circle cx="648.255" cy="623.895" r="2" fill="#3E978B" fill-opacity="0.37"/>
<circle cx="540.127" cy="623.895" r="2" fill="#3E978B" fill-opacity="0.37"/>
<circle cx="684.297" cy="623.895" r="2" fill="#3E978B" fill-opacity="0.37"/>
<circle cx="432" cy="656.79" r="2" fill="#3E978B" fill-opacity="0.37"/>
<circle cx="576.169" cy="656.79" r="2" fill="#3E978B" fill-opacity="0.37"/>
<circle cx="468.043" cy="656.79" r="2" fill="#3E978B" fill-opacity="0.37"/>
<circle cx="612.212" cy="656.79" r="2" fill="#3E978B" fill-opacity="0.37"/>
<circle cx="504.085" cy="656.79" r="2" fill="#3E978B" fill-opacity="0.37"/>
<circle cx="648.255" cy="656.79" r="2" fill="#3E978B" fill-opacity="0.37"/>
<circle cx="540.127" cy="656.79" r="2" fill="#3E978B" fill-opacity="0.37"/>
<circle cx="684.297" cy="656.79" r="2" fill="#3E978B" fill-opacity="0.37"/>
<circle cx="432" cy="689.684" r="2" fill="#3E978B" fill-opacity="0.37"/>
<circle cx="576.169" cy="689.684" r="2" fill="#3E978B" fill-opacity="0.37"/>
<circle cx="468.043" cy="689.684" r="2" fill="#3E978B" fill-opacity="0.37"/>
<circle cx="612.212" cy="689.684" r="2" fill="#3E978B" fill-opacity="0.37"/>
<circle cx="504.085" cy="689.684" r="2" fill="#3E978B" fill-opacity="0.37"/>
<circle cx="648.255" cy="689.684" r="2" fill="#3E978B" fill-opacity="0.37"/>
<circle cx="540.127" cy="689.684" r="2" fill="#3E978B" fill-opacity="0.37"/>
<circle cx="684.297" cy="689.684" r="2" fill="#3E978B" fill-opacity="0.37"/>
<circle cx="432" cy="722.579" r="2" fill="#3E978B" fill-opacity="0.37"/>
<circle cx="576.169" cy="722.579" r="2" fill="#3E978B" fill-opacity="0.37"/>
<circle cx="468.043" cy="722.579" r="2" fill="#3E978B" fill-opacity="0.37"/>
<circle cx="612.212" cy="722.579" r="2" fill="#3E978B" fill-opacity="0.37"/>
<circle cx="504.085" cy="722.579" r="2" fill="#3E978B" fill-opacity="0.37"/>
<circle cx="648.255" cy="722.579" r="2" fill="#3E978B" fill-opacity="0.37"/>
<circle cx="540.127" cy="722.579" r="2" fill="#3E978B" fill-opacity="0.37"/>
<circle cx="684.297" cy="722.579" r="2" fill="#3E978B" fill-opacity="0.37"/>
<circle cx="432" cy="755.474" r="2" fill="#3E978B" fill-opacity="0.37"/>
<circle cx="576.169" cy="755.474" r="2" fill="#3E978B" fill-opacity="0.37"/>
<circle cx="468.043" cy="755.474" r="2" fill="#3E978B" fill-opacity="0.37"/>
<circle cx="612.212" cy="755.474" r="2" fill="#3E978B" fill-opacity="0.37"/>
<circle cx="504.085" cy="755.474" r="2" fill="#3E978B" fill-opacity="0.37"/>
<circle cx="648.255" cy="755.474" r="2" fill="#3E978B" fill-opacity="0.37"/>
<circle cx="540.127" cy="755.474" r="2" fill="#3E978B" fill-opacity="0.37"/>
<circle cx="684.297" cy="755.474" r="2" fill="#3E978B" fill-opacity="0.37"/>
</g>
<defs>
<linearGradient id="paint0_linear_748_127" x1="1239.35" y1="489.919" x2="783.642" y2="281.755" gradientUnits="userSpaceOnUse">
<stop stop-color="#70E5F4"/>
<stop offset="0.287905" stop-color="#2EC1AC" stop-opacity="0.67"/>
<stop offset="1" stop-color="#EFF48E" stop-opacity="0.84"/>
</linearGradient>
<linearGradient id="paint1_linear_748_127" x1="1031.5" y1="202" x2="1031.5" y2="558" gradientUnits="userSpaceOnUse">
<stop stop-color="white"/>
<stop offset="1" stop-color="#EFF48E" stop-opacity="0.11"/>
</linearGradient>
<linearGradient id="paint2_linear_748_127" x1="1066.5" y1="210" x2="1066.5" y2="478.037" gradientUnits="userSpaceOnUse">
<stop stop-color="white"/>
<stop offset="1" stop-color="#EFF48E" stop-opacity="0.11"/>
</linearGradient>
<radialGradient id="paint3_radial_748_127" cx="0" cy="0" r="1" gradientUnits="userSpaceOnUse" gradientTransform="translate(89.6923 695.143) rotate(-52.7272) scale(123.281 115.653)">
<stop stop-color="#2EC1AC" stop-opacity="0.52"/>
<stop offset="0.890625" stop-color="#EFF48E" stop-opacity="0.84"/>
</radialGradient>
<linearGradient id="paint4_linear_748_127" x1="137" y1="518" x2="137" y2="711" gradientUnits="userSpaceOnUse">
<stop stop-color="white"/>
<stop offset="1" stop-color="#EFF48E" stop-opacity="0.11"/>
</linearGradient>
<clipPath id="clip0_748_127">
<rect width="1273" height="785" fill="white"/>
</clipPath>
</defs>
</svg>
