<svg width="1273" height="785" viewBox="0 0 1273 785" fill="none" xmlns="http://www.w3.org/2000/svg">
<g clip-path="url(#clip0_748_127)">
<rect width="1273" height="785" fill="white"/>
<path d="M1245.39 380C1245.39 477.871 1149.74 557.394 1031.5 557.394C913.259 557.394 817.606 477.871 817.606 380C817.606 282.129 913.259 202.606 1031.5 202.606C1149.74 202.606 1245.39 282.129 1245.39 380Z" stroke="url(#paint0_linear_748_127)" stroke-width="1.21134"/>
<path d="M1227.54 344.019C1227.54 417.707 1155.53 477.581 1066.5 477.581C977.475 477.581 905.456 417.707 905.456 344.019C905.456 270.33 977.475 210.456 1066.5 210.456C1155.53 210.456 1227.54 270.33 1227.54 344.019Z" stroke="url(#paint1_linear_748_127)" stroke-width="0.912035"/>
<path fill-rule="evenodd" clip-rule="evenodd" d="M1133.57 816.502C1078.61 774.677 1064.3 696.765 1106.11 641.82C1148.23 586.486 1227.54 578.176 1282.89 620.298C1333.17 658.562 1328.43 731.634 1290.18 781.901C1252.25 831.739 1183.42 854.44 1133.57 816.502Z" fill="url(#paint2_radial_748_127)"/>
<path d="M233.5 614.5C233.5 667.517 190.298 710.5 137 710.5C83.7021 710.5 40.5 667.517 40.5 614.5C40.5 561.483 83.7021 518.5 137 518.5C190.298 518.5 233.5 561.483 233.5 614.5Z" stroke="url(#paint3_linear_748_127)"/>
<path d="M1111.23 695.217C1111.23 732.175 1147.35 762.205 1192 762.205C1236.65 762.205 1272.77 732.175 1272.77 695.217C1272.77 658.258 1236.65 628.229 1192 628.229C1147.35 628.229 1111.23 658.258 1111.23 695.217Z" stroke="url(#paint4_linear_748_127)" stroke-width="0.457429"/>
<path d="M1146.18 709.695C1146.18 738.668 1174.5 762.21 1209.5 762.21C1244.5 762.21 1272.82 738.668 1272.82 709.695C1272.82 680.721 1244.5 657.179 1209.5 657.179C1174.5 657.179 1146.18 680.721 1146.18 709.695Z" stroke="url(#paint5_linear_748_127)" stroke-width="0.358602"/>
<circle cx="529" cy="596" r="2" fill="#3E978B" fill-opacity="0.37"/>
<circle cx="673.169" cy="596" r="2" fill="#3E978B" fill-opacity="0.37"/>
<circle cx="565.043" cy="596" r="2" fill="#3E978B" fill-opacity="0.37"/>
<circle cx="709.212" cy="596" r="2" fill="#3E978B" fill-opacity="0.37"/>
<circle cx="601.085" cy="596" r="2" fill="#3E978B" fill-opacity="0.37"/>
<circle cx="745.255" cy="596" r="2" fill="#3E978B" fill-opacity="0.37"/>
<circle cx="637.127" cy="596" r="2" fill="#3E978B" fill-opacity="0.37"/>
<circle cx="781.297" cy="596" r="2" fill="#3E978B" fill-opacity="0.37"/>
<circle cx="529" cy="628.895" r="2" fill="#3E978B" fill-opacity="0.37"/>
<circle cx="673.169" cy="628.895" r="2" fill="#3E978B" fill-opacity="0.37"/>
<circle cx="565.043" cy="628.895" r="2" fill="#3E978B" fill-opacity="0.37"/>
<circle cx="709.212" cy="628.895" r="2" fill="#3E978B" fill-opacity="0.37"/>
<circle cx="601.085" cy="628.895" r="2" fill="#3E978B" fill-opacity="0.37"/>
<circle cx="745.255" cy="628.895" r="2" fill="#3E978B" fill-opacity="0.37"/>
<circle cx="637.127" cy="628.895" r="2" fill="#3E978B" fill-opacity="0.37"/>
<circle cx="781.297" cy="628.895" r="2" fill="#3E978B" fill-opacity="0.37"/>
<circle cx="529" cy="661.79" r="2" fill="#3E978B" fill-opacity="0.37"/>
<circle cx="673.169" cy="661.79" r="2" fill="#3E978B" fill-opacity="0.37"/>
<circle cx="565.043" cy="661.79" r="2" fill="#3E978B" fill-opacity="0.37"/>
<circle cx="709.212" cy="661.79" r="2" fill="#3E978B" fill-opacity="0.37"/>
<circle cx="601.085" cy="661.79" r="2" fill="#3E978B" fill-opacity="0.37"/>
<circle cx="745.255" cy="661.79" r="2" fill="#3E978B" fill-opacity="0.37"/>
<circle cx="637.127" cy="661.79" r="2" fill="#3E978B" fill-opacity="0.37"/>
<circle cx="781.297" cy="661.79" r="2" fill="#3E978B" fill-opacity="0.37"/>
<circle cx="529" cy="694.684" r="2" fill="#3E978B" fill-opacity="0.37"/>
<circle cx="673.169" cy="694.684" r="2" fill="#3E978B" fill-opacity="0.37"/>
<circle cx="565.043" cy="694.684" r="2" fill="#3E978B" fill-opacity="0.37"/>
<circle cx="709.212" cy="694.684" r="2" fill="#3E978B" fill-opacity="0.37"/>
<circle cx="601.085" cy="694.684" r="2" fill="#3E978B" fill-opacity="0.37"/>
<circle cx="745.255" cy="694.684" r="2" fill="#3E978B" fill-opacity="0.37"/>
<circle cx="637.127" cy="694.684" r="2" fill="#3E978B" fill-opacity="0.37"/>
<circle cx="781.297" cy="694.684" r="2" fill="#3E978B" fill-opacity="0.37"/>
<circle cx="529" cy="727.579" r="2" fill="#3E978B" fill-opacity="0.37"/>
<circle cx="673.169" cy="727.579" r="2" fill="#3E978B" fill-opacity="0.37"/>
<circle cx="565.043" cy="727.579" r="2" fill="#3E978B" fill-opacity="0.37"/>
<circle cx="709.212" cy="727.579" r="2" fill="#3E978B" fill-opacity="0.37"/>
<circle cx="601.085" cy="727.579" r="2" fill="#3E978B" fill-opacity="0.37"/>
<circle cx="745.255" cy="727.579" r="2" fill="#3E978B" fill-opacity="0.37"/>
<circle cx="637.127" cy="727.579" r="2" fill="#3E978B" fill-opacity="0.37"/>
<circle cx="781.297" cy="727.579" r="2" fill="#3E978B" fill-opacity="0.37"/>
<circle cx="529" cy="760.474" r="2" fill="#3E978B" fill-opacity="0.37"/>
<circle cx="673.169" cy="760.474" r="2" fill="#3E978B" fill-opacity="0.37"/>
<circle cx="565.043" cy="760.474" r="2" fill="#3E978B" fill-opacity="0.37"/>
<circle cx="709.212" cy="760.474" r="2" fill="#3E978B" fill-opacity="0.37"/>
<circle cx="601.085" cy="760.474" r="2" fill="#3E978B" fill-opacity="0.37"/>
<circle cx="745.255" cy="760.474" r="2" fill="#3E978B" fill-opacity="0.37"/>
<circle cx="637.127" cy="760.474" r="2" fill="#3E978B" fill-opacity="0.37"/>
<circle cx="781.297" cy="760.474" r="2" fill="#3E978B" fill-opacity="0.37"/>
</g>
<defs>
<linearGradient id="paint0_linear_748_127" x1="1031.5" y1="202" x2="1031.5" y2="558" gradientUnits="userSpaceOnUse">
<stop stop-color="white"/>
<stop offset="1" stop-color="#EFF48E" stop-opacity="0.11"/>
</linearGradient>
<linearGradient id="paint1_linear_748_127" x1="1066.5" y1="210" x2="1066.5" y2="478.037" gradientUnits="userSpaceOnUse">
<stop stop-color="white"/>
<stop offset="1" stop-color="#EFF48E" stop-opacity="0.11"/>
</linearGradient>
<radialGradient id="paint2_radial_748_127" cx="0" cy="0" r="1" gradientUnits="userSpaceOnUse" gradientTransform="translate(1198.69 711.143) rotate(-52.7272) scale(123.281 115.653)">
<stop stop-color="#2EC1AC" stop-opacity="0.52"/>
<stop offset="0.890625" stop-color="#EFF48E" stop-opacity="0.84"/>
</radialGradient>
<linearGradient id="paint3_linear_748_127" x1="137" y1="518" x2="137" y2="711" gradientUnits="userSpaceOnUse">
<stop stop-color="white"/>
<stop offset="1" stop-color="#EFF48E" stop-opacity="0.11"/>
</linearGradient>
<linearGradient id="paint4_linear_748_127" x1="1192" y1="628" x2="1192" y2="762.434" gradientUnits="userSpaceOnUse">
<stop stop-color="white"/>
<stop offset="1" stop-color="#EFF48E" stop-opacity="0.11"/>
</linearGradient>
<linearGradient id="paint5_linear_748_127" x1="1209.5" y1="657" x2="1209.5" y2="762.389" gradientUnits="userSpaceOnUse">
<stop stop-color="white"/>
<stop offset="1" stop-color="#EFF48E" stop-opacity="0.11"/>
</linearGradient>
<clipPath id="clip0_748_127">
<rect width="1273" height="785" fill="white"/>
</clipPath>
</defs>
</svg>
