<svg width="1282" height="785" viewBox="0 0 1282 785" fill="none" xmlns="http://www.w3.org/2000/svg">
<rect width="1282" height="785" fill="white"/>
<circle cx="1016" cy="335" r="2" fill="#2EC1AC" fill-opacity="0.34"/>
<circle cx="1160.17" cy="335" r="2" fill="#2EC1AC" fill-opacity="0.34"/>
<circle cx="1052.04" cy="335" r="2" fill="#2EC1AC" fill-opacity="0.34"/>
<circle cx="1196.21" cy="335" r="2" fill="#2EC1AC" fill-opacity="0.34"/>
<circle cx="1088.08" cy="335" r="2" fill="#2EC1AC" fill-opacity="0.34"/>
<circle cx="1232.26" cy="335" r="2" fill="#2EC1AC" fill-opacity="0.34"/>
<circle cx="1124.13" cy="335" r="2" fill="#2EC1AC" fill-opacity="0.34"/>
<circle cx="1268.3" cy="335" r="2" fill="#2EC1AC" fill-opacity="0.34"/>
<circle cx="1016" cy="367.895" r="2" fill="#2EC1AC" fill-opacity="0.34"/>
<circle cx="1160.17" cy="367.895" r="2" fill="#2EC1AC" fill-opacity="0.34"/>
<circle cx="1052.04" cy="367.895" r="2" fill="#2EC1AC" fill-opacity="0.34"/>
<circle cx="1196.21" cy="367.895" r="2" fill="#2EC1AC" fill-opacity="0.34"/>
<circle cx="1088.08" cy="367.895" r="2" fill="#2EC1AC" fill-opacity="0.34"/>
<circle cx="1232.26" cy="367.895" r="2" fill="#2EC1AC" fill-opacity="0.34"/>
<circle cx="1124.13" cy="367.895" r="2" fill="#2EC1AC" fill-opacity="0.34"/>
<circle cx="1268.3" cy="367.895" r="2" fill="#2EC1AC" fill-opacity="0.34"/>
<circle cx="1016" cy="400.789" r="2" fill="#2EC1AC" fill-opacity="0.34"/>
<circle cx="1160.17" cy="400.789" r="2" fill="#2EC1AC" fill-opacity="0.34"/>
<circle cx="1052.04" cy="400.789" r="2" fill="#2EC1AC" fill-opacity="0.34"/>
<circle cx="1196.21" cy="400.789" r="2" fill="#2EC1AC" fill-opacity="0.34"/>
<circle cx="1088.08" cy="400.789" r="2" fill="#2EC1AC" fill-opacity="0.34"/>
<circle cx="1232.26" cy="400.789" r="2" fill="#2EC1AC" fill-opacity="0.34"/>
<circle cx="1124.13" cy="400.789" r="2" fill="#2EC1AC" fill-opacity="0.34"/>
<circle cx="1268.3" cy="400.789" r="2" fill="#2EC1AC" fill-opacity="0.34"/>
<circle cx="1016" cy="433.684" r="2" fill="#2EC1AC" fill-opacity="0.34"/>
<circle cx="1160.17" cy="433.684" r="2" fill="#2EC1AC" fill-opacity="0.34"/>
<circle cx="1052.04" cy="433.684" r="2" fill="#2EC1AC" fill-opacity="0.34"/>
<circle cx="1196.21" cy="433.684" r="2" fill="#2EC1AC" fill-opacity="0.34"/>
<circle cx="1088.08" cy="433.684" r="2" fill="#2EC1AC" fill-opacity="0.34"/>
<circle cx="1232.26" cy="433.684" r="2" fill="#2EC1AC" fill-opacity="0.34"/>
<circle cx="1124.13" cy="433.684" r="2" fill="#2EC1AC" fill-opacity="0.34"/>
<circle cx="1268.3" cy="433.684" r="2" fill="#2EC1AC" fill-opacity="0.34"/>
<circle cx="1016" cy="466.579" r="2" fill="#2EC1AC" fill-opacity="0.34"/>
<circle cx="1160.17" cy="466.579" r="2" fill="#2EC1AC" fill-opacity="0.34"/>
<circle cx="1052.04" cy="466.579" r="2" fill="#2EC1AC" fill-opacity="0.34"/>
<circle cx="1196.21" cy="466.579" r="2" fill="#2EC1AC" fill-opacity="0.34"/>
<circle cx="1088.08" cy="466.579" r="2" fill="#2EC1AC" fill-opacity="0.34"/>
<circle cx="1232.26" cy="466.579" r="2" fill="#2EC1AC" fill-opacity="0.34"/>
<circle cx="1124.13" cy="466.579" r="2" fill="#2EC1AC" fill-opacity="0.34"/>
<circle cx="1268.3" cy="466.579" r="2" fill="#2EC1AC" fill-opacity="0.34"/>
<circle cx="1016" cy="499.474" r="2" fill="#2EC1AC" fill-opacity="0.34"/>
<circle cx="1160.17" cy="499.474" r="2" fill="#2EC1AC" fill-opacity="0.34"/>
<circle cx="1052.04" cy="499.474" r="2" fill="#2EC1AC" fill-opacity="0.34"/>
<circle cx="1196.21" cy="499.474" r="2" fill="#2EC1AC" fill-opacity="0.34"/>
<circle cx="1088.08" cy="499.474" r="2" fill="#2EC1AC" fill-opacity="0.34"/>
<circle cx="1232.26" cy="499.474" r="2" fill="#2EC1AC" fill-opacity="0.34"/>
<circle cx="1124.13" cy="499.474" r="2" fill="#2EC1AC" fill-opacity="0.34"/>
<circle cx="1268.3" cy="499.474" r="2" fill="#2EC1AC" fill-opacity="0.34"/>
<circle cx="1016" cy="532.368" r="2" fill="#2EC1AC" fill-opacity="0.34"/>
<circle cx="1160.17" cy="532.368" r="2" fill="#2EC1AC" fill-opacity="0.34"/>
<circle cx="1052.04" cy="532.368" r="2" fill="#2EC1AC" fill-opacity="0.34"/>
<circle cx="1196.21" cy="532.368" r="2" fill="#2EC1AC" fill-opacity="0.34"/>
<circle cx="1088.08" cy="532.368" r="2" fill="#2EC1AC" fill-opacity="0.34"/>
<circle cx="1232.26" cy="532.368" r="2" fill="#2EC1AC" fill-opacity="0.34"/>
<circle cx="1124.13" cy="532.368" r="2" fill="#2EC1AC" fill-opacity="0.34"/>
<circle cx="1268.3" cy="532.368" r="2" fill="#2EC1AC" fill-opacity="0.34"/>
<circle cx="1016" cy="565.263" r="2" fill="#2EC1AC" fill-opacity="0.34"/>
<circle cx="1160.17" cy="565.263" r="2" fill="#2EC1AC" fill-opacity="0.34"/>
<circle cx="1052.04" cy="565.263" r="2" fill="#2EC1AC" fill-opacity="0.34"/>
<circle cx="1196.21" cy="565.263" r="2" fill="#2EC1AC" fill-opacity="0.34"/>
<circle cx="1088.08" cy="565.263" r="2" fill="#2EC1AC" fill-opacity="0.34"/>
<circle cx="1232.26" cy="565.263" r="2" fill="#2EC1AC" fill-opacity="0.34"/>
<circle cx="1124.13" cy="565.263" r="2" fill="#2EC1AC" fill-opacity="0.34"/>
<circle cx="1268.3" cy="565.263" r="2" fill="#2EC1AC" fill-opacity="0.34"/>
</svg>
