<svg width="1282" height="582" viewBox="0 0 1282 582" fill="none" xmlns="http://www.w3.org/2000/svg">
<g clip-path="url(#clip0_748_114)">
<rect width="1282" height="582" fill="white"/>
<circle cx="1016" cy="335" r="2" fill="#2EC1AC" fill-opacity="0.34"/>
<circle cx="1160.17" cy="335" r="2" fill="#2EC1AC" fill-opacity="0.34"/>
<circle cx="1052.04" cy="335" r="2" fill="#2EC1AC" fill-opacity="0.34"/>
<circle cx="1196.21" cy="335" r="2" fill="#2EC1AC" fill-opacity="0.34"/>
<circle cx="1088.08" cy="335" r="2" fill="#2EC1AC" fill-opacity="0.34"/>
<circle cx="1232.26" cy="335" r="2" fill="#2EC1AC" fill-opacity="0.34"/>
<circle cx="1124.13" cy="335" r="2" fill="#2EC1AC" fill-opacity="0.34"/>
<circle cx="1268.3" cy="335" r="2" fill="#2EC1AC" fill-opacity="0.34"/>
<circle cx="1016" cy="367.895" r="2" fill="#2EC1AC" fill-opacity="0.34"/>
<circle cx="1160.17" cy="367.895" r="2" fill="#2EC1AC" fill-opacity="0.34"/>
<circle cx="1052.04" cy="367.895" r="2" fill="#2EC1AC" fill-opacity="0.34"/>
<circle cx="1196.21" cy="367.895" r="2" fill="#2EC1AC" fill-opacity="0.34"/>
<circle cx="1088.08" cy="367.895" r="2" fill="#2EC1AC" fill-opacity="0.34"/>
<circle cx="1232.26" cy="367.895" r="2" fill="#2EC1AC" fill-opacity="0.34"/>
<circle cx="1124.13" cy="367.895" r="2" fill="#2EC1AC" fill-opacity="0.34"/>
<circle cx="1268.3" cy="367.895" r="2" fill="#2EC1AC" fill-opacity="0.34"/>
<circle cx="1016" cy="400.789" r="2" fill="#2EC1AC" fill-opacity="0.34"/>
<circle cx="1160.17" cy="400.789" r="2" fill="#2EC1AC" fill-opacity="0.34"/>
<circle cx="1052.04" cy="400.789" r="2" fill="#2EC1AC" fill-opacity="0.34"/>
<circle cx="1196.21" cy="400.789" r="2" fill="#2EC1AC" fill-opacity="0.34"/>
<circle cx="1088.08" cy="400.789" r="2" fill="#2EC1AC" fill-opacity="0.34"/>
<circle cx="1232.26" cy="400.789" r="2" fill="#2EC1AC" fill-opacity="0.34"/>
<circle cx="1124.13" cy="400.789" r="2" fill="#2EC1AC" fill-opacity="0.34"/>
<circle cx="1268.3" cy="400.789" r="2" fill="#2EC1AC" fill-opacity="0.34"/>
<circle cx="1016" cy="433.684" r="2" fill="#2EC1AC" fill-opacity="0.34"/>
<circle cx="1160.17" cy="433.684" r="2" fill="#2EC1AC" fill-opacity="0.34"/>
<circle cx="1052.04" cy="433.684" r="2" fill="#2EC1AC" fill-opacity="0.34"/>
<circle cx="1196.21" cy="433.684" r="2" fill="#2EC1AC" fill-opacity="0.34"/>
<circle cx="1088.08" cy="433.684" r="2" fill="#2EC1AC" fill-opacity="0.34"/>
<circle cx="1232.26" cy="433.684" r="2" fill="#2EC1AC" fill-opacity="0.34"/>
<circle cx="1124.13" cy="433.684" r="2" fill="#2EC1AC" fill-opacity="0.34"/>
<circle cx="1268.3" cy="433.684" r="2" fill="#2EC1AC" fill-opacity="0.34"/>
<circle cx="1016" cy="466.579" r="2" fill="#2EC1AC" fill-opacity="0.34"/>
<circle cx="1160.17" cy="466.579" r="2" fill="#2EC1AC" fill-opacity="0.34"/>
<circle cx="1052.04" cy="466.579" r="2" fill="#2EC1AC" fill-opacity="0.34"/>
<circle cx="1196.21" cy="466.579" r="2" fill="#2EC1AC" fill-opacity="0.34"/>
<circle cx="1088.08" cy="466.579" r="2" fill="#2EC1AC" fill-opacity="0.34"/>
<circle cx="1232.26" cy="466.579" r="2" fill="#2EC1AC" fill-opacity="0.34"/>
<circle cx="1124.13" cy="466.579" r="2" fill="#2EC1AC" fill-opacity="0.34"/>
<circle cx="1268.3" cy="466.579" r="2" fill="#2EC1AC" fill-opacity="0.34"/>
<circle cx="1016" cy="499.474" r="2" fill="#2EC1AC" fill-opacity="0.34"/>
<circle cx="1160.17" cy="499.474" r="2" fill="#2EC1AC" fill-opacity="0.34"/>
<circle cx="1052.04" cy="499.474" r="2" fill="#2EC1AC" fill-opacity="0.34"/>
<circle cx="1196.21" cy="499.474" r="2" fill="#2EC1AC" fill-opacity="0.34"/>
<circle cx="1088.08" cy="499.474" r="2" fill="#2EC1AC" fill-opacity="0.34"/>
<circle cx="1232.26" cy="499.474" r="2" fill="#2EC1AC" fill-opacity="0.34"/>
<circle cx="1124.13" cy="499.474" r="2" fill="#2EC1AC" fill-opacity="0.34"/>
<circle cx="1268.3" cy="499.474" r="2" fill="#2EC1AC" fill-opacity="0.34"/>
<circle cx="1016" cy="532.368" r="2" fill="#2EC1AC" fill-opacity="0.34"/>
<circle cx="1160.17" cy="532.368" r="2" fill="#2EC1AC" fill-opacity="0.34"/>
<circle cx="1052.04" cy="532.368" r="2" fill="#2EC1AC" fill-opacity="0.34"/>
<circle cx="1196.21" cy="532.368" r="2" fill="#2EC1AC" fill-opacity="0.34"/>
<circle cx="1088.08" cy="532.368" r="2" fill="#2EC1AC" fill-opacity="0.34"/>
<circle cx="1232.26" cy="532.368" r="2" fill="#2EC1AC" fill-opacity="0.34"/>
<circle cx="1124.13" cy="532.368" r="2" fill="#2EC1AC" fill-opacity="0.34"/>
<circle cx="1268.3" cy="532.368" r="2" fill="#2EC1AC" fill-opacity="0.34"/>
<circle cx="1016" cy="565.263" r="2" fill="#2EC1AC" fill-opacity="0.34"/>
<circle cx="1160.17" cy="565.263" r="2" fill="#2EC1AC" fill-opacity="0.34"/>
<circle cx="1052.04" cy="565.263" r="2" fill="#2EC1AC" fill-opacity="0.34"/>
<circle cx="1196.21" cy="565.263" r="2" fill="#2EC1AC" fill-opacity="0.34"/>
<circle cx="1088.08" cy="565.263" r="2" fill="#2EC1AC" fill-opacity="0.34"/>
<circle cx="1232.26" cy="565.263" r="2" fill="#2EC1AC" fill-opacity="0.34"/>
<circle cx="1124.13" cy="565.263" r="2" fill="#2EC1AC" fill-opacity="0.34"/>
<circle cx="1268.3" cy="565.263" r="2" fill="#2EC1AC" fill-opacity="0.34"/>
<path fill-rule="evenodd" clip-rule="evenodd" d="M298.734 15.7999C341.557 32.7648 367.093 74.4482 391.725 113.338C416.903 153.09 439.835 194.618 441.746 241.592C443.841 293.081 436.227 347.995 402.868 387.26C369.361 426.7 314.589 435.435 264.83 449.833C211.849 465.162 156.662 493.132 105.11 473.414C53.0971 453.519 17.3397 401.63 0.331621 348.664C-14.8255 301.462 16.5945 254.355 18.8741 204.859C21.3027 152.127 -19.1524 91.4491 14.0669 50.4289C47.1069 9.63 113.373 30.0836 165.552 23.7361C210.803 18.2315 256.335 -0.996941 298.734 15.7999Z" fill="url(#paint0_radial_748_114)"/>
</g>
<defs>
<radialGradient id="paint0_radial_748_114" cx="0" cy="0" r="1" gradientUnits="userSpaceOnUse" gradientTransform="translate(200.151 243.885) rotate(112.934) scale(248.5 249)">
<stop offset="0.0260417" stop-color="#2EC1AC"/>
<stop offset="0.0261417" stop-color="#68EFF2" stop-opacity="0.8"/>
<stop offset="0.386043" stop-color="#2EC1AC" stop-opacity="0.83"/>
<stop offset="0.895833" stop-color="#D2E603" stop-opacity="0.55"/>
</radialGradient>
<clipPath id="clip0_748_114">
<rect width="1282" height="582" fill="white"/>
</clipPath>
</defs>
</svg>
