<svg width="26" height="26" viewBox="0 0 26 26" fill="none" xmlns="http://www.w3.org/2000/svg">
<path d="M25.037 13C25.037 19.9311 19.6309 25.5185 13 25.5185C6.36909 25.5185 0.962957 19.9311 0.962957 13C0.962957 6.06892 6.36909 0.481481 13 0.481481C19.6309 0.481481 25.037 6.06892 25.037 13Z" stroke="black" stroke-width="0.962963"/>
<path d="M15.3546 12.1459C15.4012 12.1924 15.4381 12.2475 15.4633 12.3083C15.4886 12.369 15.5015 12.4341 15.5015 12.4999C15.5015 12.5657 15.4886 12.6308 15.4633 12.6916C15.4381 12.7523 15.4012 12.8075 15.3546 12.8539L12.3546 15.8539C12.3082 15.9005 12.253 15.9374 12.1923 15.9626C12.1315 15.9878 12.0664 16.0008 12.0006 16.0008C11.9349 16.0008 11.8697 15.9878 11.809 15.9626C11.7483 15.9374 11.6931 15.9005 11.6466 15.8539L10.1466 14.3539C10.1001 14.3074 10.0633 14.2522 10.0381 14.1915C10.0129 14.1308 10 14.0657 10 13.9999C10 13.9342 10.0129 13.8691 10.0381 13.8083C10.0633 13.7476 10.1001 13.6924 10.1466 13.6459C10.2405 13.552 10.3679 13.4993 10.5006 13.4993C10.5664 13.4993 10.6315 13.5122 10.6922 13.5374C10.753 13.5626 10.8081 13.5994 10.8546 13.6459L12.0006 14.7929L14.6466 12.1459C14.6931 12.0994 14.7483 12.0624 14.809 12.0372C14.8697 12.012 14.9349 11.999 15.0006 11.999C15.0664 11.999 15.1315 12.012 15.1923 12.0372C15.253 12.0624 15.3082 12.0994 15.3546 12.1459V12.1459Z" fill="black"/>
<path d="M8.5 5C8.63261 5 8.75979 5.05268 8.85355 5.14645C8.94732 5.24021 9 5.36739 9 5.5V6H17V5.5C17 5.36739 17.0527 5.24021 17.1464 5.14645C17.2402 5.05268 17.3674 5 17.5 5C17.6326 5 17.7598 5.05268 17.8536 5.14645C17.9473 5.24021 18 5.36739 18 5.5V6H19C19.5304 6 20.0391 6.21071 20.4142 6.58579C20.7893 6.96086 21 7.46957 21 8V19C21 19.5304 20.7893 20.0391 20.4142 20.4142C20.0391 20.7893 19.5304 21 19 21H7C6.46957 21 5.96086 20.7893 5.58579 20.4142C5.21071 20.0391 5 19.5304 5 19V8C5 7.46957 5.21071 6.96086 5.58579 6.58579C5.96086 6.21071 6.46957 6 7 6H8V5.5C8 5.36739 8.05268 5.24021 8.14645 5.14645C8.24021 5.05268 8.36739 5 8.5 5V5ZM6 9V19C6 19.2652 6.10536 19.5196 6.29289 19.7071C6.48043 19.8946 6.73478 20 7 20H19C19.2652 20 19.5196 19.8946 19.7071 19.7071C19.8946 19.5196 20 19.2652 20 19V9H6Z" fill="black"/>
</svg>
