<svg width="228" height="50" viewBox="0 0 228 50" fill="none" xmlns="http://www.w3.org/2000/svg">
<path d="M11.8392 28.9235L16.2604 24.7985C16.329 24.7347 16.3834 24.6588 16.4206 24.5753C16.4577 24.4917 16.4768 24.4022 16.4768 24.3118C16.4768 24.2213 16.4577 24.1318 16.4206 24.0483C16.3834 23.9648 16.329 23.8889 16.2604 23.825L11.8392 28.9235ZM11.8392 28.9235C11.7708 28.9875 11.6894 29.0383 11.5999 29.073C11.5104 29.1077 11.4144 29.1255 11.3175 29.1255C11.2206 29.1255 11.1246 29.1077 11.0351 29.073C10.9456 29.0383 10.8643 28.9875 10.7958 28.9235H11.8392ZM16.059 24.0403L16.0596 24.0408C16.0999 24.0783 16.1307 24.1217 16.1513 24.1681C16.1718 24.2143 16.1821 24.2631 16.1821 24.3118C16.1821 24.3605 16.1718 24.4093 16.1513 24.4555C16.1307 24.5018 16.0999 24.5452 16.0596 24.5828L16.0593 24.583L11.6381 28.708L11.6379 28.7083C11.5976 28.7459 11.5487 28.7768 11.4935 28.7981C11.4383 28.8195 11.3784 28.8308 11.3175 28.8308C11.2566 28.8308 11.1968 28.8195 11.1415 28.7981C11.0863 28.7768 11.0374 28.7459 10.9972 28.7083L10.9969 28.708L8.78631 26.6455C8.74603 26.6079 8.71527 26.5645 8.69469 26.5181C8.67414 26.4718 8.66388 26.423 8.66388 26.3743C8.66388 26.3255 8.67414 26.2767 8.69469 26.2304C8.71527 26.1841 8.74603 26.1406 8.78631 26.103C8.86808 26.0267 8.98309 25.9807 9.10693 25.9807C9.16784 25.9807 9.22773 25.9919 9.28302 26.0132C9.33825 26.0346 9.38716 26.0654 9.42746 26.1029C9.42749 26.103 9.42752 26.103 9.42755 26.103L11.1163 27.6801L11.3175 27.8679L11.5186 27.6801L15.4181 24.0405L15.4183 24.0403C15.4585 24.0026 15.5074 23.9718 15.5627 23.9504C15.6179 23.929 15.6778 23.9178 15.7387 23.9178C15.7995 23.9178 15.8594 23.929 15.9147 23.9504C15.9699 23.9718 16.0188 24.0026 16.059 24.0403Z" fill="black" stroke="black" stroke-width="0.589487"/>
<path d="M6.15801 14.2947C6.28161 14.2947 6.39638 14.3407 6.47798 14.4169C6.55888 14.4924 6.60013 14.5902 6.60013 14.6875V15.375V15.6697H6.89487H18.6846H18.9794V15.375V14.6875C18.9794 14.5902 19.0206 14.4924 19.1015 14.4169C19.1831 14.3407 19.2979 14.2947 19.4215 14.2947C19.5451 14.2947 19.6598 14.3407 19.7414 14.4169C19.8223 14.4924 19.8636 14.5902 19.8636 14.6875V15.375V15.6697H20.1583H21.6321C22.3419 15.6697 23.019 15.933 23.5151 16.396C24.0106 16.8582 24.2847 17.4807 24.2847 18.125V33.25C24.2847 33.8943 24.0106 34.5168 23.5151 34.979C23.019 35.442 22.3419 35.7053 21.6321 35.7053H3.94744C3.23756 35.7053 2.56051 35.442 2.06436 34.979C1.56889 34.5168 1.29474 33.8943 1.29474 33.25V18.125C1.29474 17.4807 1.56889 16.8582 2.06436 16.396C2.56051 15.933 3.23756 15.6697 3.94744 15.6697H5.42115H5.7159V15.375V14.6875C5.7159 14.5902 5.75714 14.4924 5.83805 14.4169C5.91964 14.3407 6.03442 14.2947 6.15801 14.2947ZM2.47372 19.2053H2.17897V19.5V33.25C2.17897 33.6997 2.37063 34.1265 2.70429 34.4378C3.03726 34.7484 3.48475 34.9197 3.94744 34.9197H21.6321C22.0947 34.9197 22.5422 34.7484 22.8752 34.4378C23.2089 34.1265 23.4005 33.6997 23.4005 33.25V19.5V19.2053H23.1058H2.47372Z" fill="black" stroke="black" stroke-width="0.589487"/>
<path d="M35 7C35 29.4103 35 37.2863 35 38.4231" stroke="black" stroke-width="0.974359"/>
<path d="M57.9353 38.3897C55.7268 38.3897 53.6871 38.1169 51.8163 37.5713C49.9715 36.9997 48.3866 36.2202 47.0615 35.2328L48.6204 31.2964C49.5039 31.92 50.4262 32.4526 51.3876 32.8944C52.349 33.3101 53.3753 33.6349 54.4666 33.8687C55.5579 34.0766 56.7141 34.1805 57.9353 34.1805C59.988 34.1805 61.469 33.8427 62.3784 33.1672C63.2878 32.4916 63.7425 31.6082 63.7425 30.5169C63.7425 29.5556 63.4307 28.828 62.8071 28.3344C62.1835 27.8147 61.0662 27.386 59.4553 27.0482L55.0512 26.1518C52.5309 25.6321 50.6471 24.7617 49.3999 23.5405C48.1527 22.3193 47.5292 20.6824 47.5292 18.6297C47.5292 16.9149 47.9839 15.4209 48.8933 14.1477C49.8027 12.8745 51.0758 11.8872 52.7127 11.1856C54.3497 10.4841 56.2594 10.1333 58.442 10.1333C60.3907 10.1333 62.1965 10.4191 63.8594 10.9908C65.5223 11.5364 66.9124 12.3289 68.0297 13.3682L66.4707 17.1097C65.3534 16.1744 64.1322 15.4858 62.8071 15.0441C61.482 14.5764 60.001 14.3426 58.364 14.3426C56.5192 14.3426 55.0772 14.7063 54.0379 15.4338C53.0245 16.1354 52.5179 17.1097 52.5179 18.3569C52.5179 19.3183 52.8297 20.0848 53.4533 20.6564C54.1028 21.228 55.1941 21.6697 56.7271 21.9815L61.0922 22.839C63.6905 23.3586 65.6133 24.2161 66.8604 25.4113C68.1076 26.5805 68.7312 28.1655 68.7312 30.1662C68.7312 31.8031 68.2895 33.2451 67.4061 34.4923C66.5227 35.7135 65.2755 36.6749 63.6645 37.3764C62.0536 38.052 60.1439 38.3897 57.9353 38.3897ZM73.0781 38V18.3179H77.9499V38H73.0781ZM72.8052 14.6154V9.86051H78.2227V14.6154H72.8052ZM83.2403 38V23.2287C83.2403 22.4232 83.2143 21.6048 83.1624 20.7733C83.1104 19.9419 83.0325 19.1234 82.9285 18.3179H87.6444L88.0342 22.2154H87.5665C88.1121 20.8643 88.9436 19.812 90.0608 19.0585C91.2041 18.305 92.5552 17.9282 94.1142 17.9282C95.6731 17.9282 96.9593 18.305 97.9726 19.0585C99.0119 19.786 99.7395 20.9292 100.155 22.4882H99.5316C100.077 21.0851 100.974 19.9809 102.221 19.1754C103.468 18.3439 104.897 17.9282 106.508 17.9282C108.717 17.9282 110.366 18.5778 111.458 19.8769C112.549 21.1761 113.095 23.2027 113.095 25.9569V38H108.223V26.1518C108.223 24.5928 107.963 23.4756 107.443 22.8C106.924 22.0985 106.092 21.7477 104.949 21.7477C103.598 21.7477 102.533 22.2284 101.753 23.1897C100.974 24.1251 100.584 25.3983 100.584 27.0092V38H95.7121V26.1518C95.7121 24.5928 95.4523 23.4756 94.9326 22.8C94.413 22.0985 93.5815 21.7477 92.4383 21.7477C91.0872 21.7477 90.0219 22.2284 89.2424 23.1897C88.4889 24.1251 88.1121 25.3983 88.1121 27.0092V38H83.2403ZM118.294 46.4185V23.2287C118.294 22.4232 118.268 21.6048 118.216 20.7733C118.164 19.9419 118.087 19.1234 117.983 18.3179H122.699L123.127 22.4492H122.699C123.088 21.0721 123.907 19.9809 125.154 19.1754C126.427 18.3439 127.895 17.9282 129.558 17.9282C131.299 17.9282 132.819 18.3439 134.118 19.1754C135.417 19.9809 136.43 21.1501 137.158 22.6831C137.886 24.1901 138.249 26.0089 138.249 28.1395C138.249 30.2701 137.886 32.1019 137.158 33.6349C136.43 35.1679 135.417 36.3501 134.118 37.1815C132.819 37.987 131.299 38.3897 129.558 38.3897C127.921 38.3897 126.479 37.987 125.232 37.1815C123.985 36.3761 123.153 35.2978 122.737 33.9467H123.166V46.4185H118.294ZM128.194 34.6482C129.753 34.6482 131 34.1156 131.935 33.0503C132.871 31.959 133.339 30.3221 133.339 28.1395C133.339 25.9569 132.871 24.333 131.935 23.2677C131 22.2024 129.753 21.6697 128.194 21.6697C126.661 21.6697 125.427 22.2024 124.491 23.2677C123.556 24.333 123.088 25.9569 123.088 28.1395C123.088 30.3221 123.556 31.959 124.491 33.0503C125.427 34.1156 126.661 34.6482 128.194 34.6482ZM142.463 38V9.31487H147.335V38H142.463ZM160.225 38.3897C158.51 38.3897 157.003 37.987 155.704 37.1815C154.405 36.3501 153.392 35.1679 152.664 33.6349C151.937 32.1019 151.573 30.2701 151.573 28.1395C151.573 26.0089 151.937 24.1901 152.664 22.6831C153.392 21.1501 154.405 19.9809 155.704 19.1754C157.003 18.3439 158.51 17.9282 160.225 17.9282C161.888 17.9282 163.343 18.3439 164.59 19.1754C165.864 19.9809 166.708 21.0721 167.124 22.4492H166.695L167.124 18.3179H171.801C171.723 19.1234 171.645 19.9419 171.567 20.7733C171.515 21.6048 171.489 22.4232 171.489 23.2287V38H166.656L166.617 33.9467H167.085C166.669 35.2978 165.825 36.3761 164.551 37.1815C163.278 37.987 161.836 38.3897 160.225 38.3897ZM161.589 34.6482C163.122 34.6482 164.357 34.1156 165.292 33.0503C166.227 31.959 166.695 30.3221 166.695 28.1395C166.695 25.9569 166.227 24.333 165.292 23.2677C164.357 22.2024 163.122 21.6697 161.589 21.6697C160.056 21.6697 158.822 22.2024 157.887 23.2677C156.951 24.333 156.484 25.9569 156.484 28.1395C156.484 30.3221 156.939 31.959 157.848 33.0503C158.783 34.1156 160.03 34.6482 161.589 34.6482ZM176.794 46.4185V23.2287C176.794 22.4232 176.768 21.6048 176.716 20.7733C176.664 19.9419 176.586 19.1234 176.482 18.3179H181.198L181.627 22.4492H181.198C181.588 21.0721 182.406 19.9809 183.653 19.1754C184.927 18.3439 186.395 17.9282 188.058 17.9282C189.798 17.9282 191.318 18.3439 192.618 19.1754C193.917 19.9809 194.93 21.1501 195.658 22.6831C196.385 24.1901 196.749 26.0089 196.749 28.1395C196.749 30.2701 196.385 32.1019 195.658 33.6349C194.93 35.1679 193.917 36.3501 192.618 37.1815C191.318 37.987 189.798 38.3897 188.058 38.3897C186.421 38.3897 184.979 37.987 183.731 37.1815C182.484 36.3761 181.653 35.2978 181.237 33.9467H181.666V46.4185H176.794ZM186.693 34.6482C188.252 34.6482 189.5 34.1156 190.435 33.0503C191.37 31.959 191.838 30.3221 191.838 28.1395C191.838 25.9569 191.37 24.333 190.435 23.2677C189.5 22.2024 188.252 21.6697 186.693 21.6697C185.161 21.6697 183.926 22.2024 182.991 23.2677C182.056 24.333 181.588 25.9569 181.588 28.1395C181.588 30.3221 182.056 31.959 182.991 33.0503C183.926 34.1156 185.161 34.6482 186.693 34.6482ZM200.963 46.4185V23.2287C200.963 22.4232 200.937 21.6048 200.885 20.7733C200.833 19.9419 200.755 19.1234 200.651 18.3179H205.367L205.796 22.4492H205.367C205.757 21.0721 206.575 19.9809 207.822 19.1754C209.095 18.3439 210.563 17.9282 212.226 17.9282C213.967 17.9282 215.487 18.3439 216.786 19.1754C218.085 19.9809 219.099 21.1501 219.826 22.6831C220.554 24.1901 220.918 26.0089 220.918 28.1395C220.918 30.2701 220.554 32.1019 219.826 33.6349C219.099 35.1679 218.085 36.3501 216.786 37.1815C215.487 37.987 213.967 38.3897 212.226 38.3897C210.589 38.3897 209.147 37.987 207.9 37.1815C206.653 36.3761 205.821 35.2978 205.406 33.9467H205.834V46.4185H200.963ZM210.862 34.6482C212.421 34.6482 213.668 34.1156 214.604 33.0503C215.539 31.959 216.007 30.3221 216.007 28.1395C216.007 25.9569 215.539 24.333 214.604 23.2677C213.668 22.2024 212.421 21.6697 210.862 21.6697C209.329 21.6697 208.095 22.2024 207.16 23.2677C206.224 24.333 205.757 25.9569 205.757 28.1395C205.757 30.3221 206.224 31.959 207.16 33.0503C208.095 34.1156 209.329 34.6482 210.862 34.6482Z" fill="black"/>
</svg>
